<svg width="27" height="35" viewBox="0 0 27 35" fill="none" xmlns="http://www.w3.org/2000/svg">
<g opacity="0.5">
<path d="M23.16 10.44L22.18 14.62C21.34 18.23 19.68 19.69 16.56 19.39C16.06 19.35 15.52 19.26 14.94 19.12L13.26 18.72C9.09 17.73 7.8 15.67 8.78 11.49L9.76 7.30001C9.96 6.45001 10.2 5.71001 10.5 5.10001C11.67 2.68001 13.66 2.03001 17 2.82001L18.67 3.21001C22.86 4.19001 24.14 6.26001 23.16 10.44Z" stroke="#0C0F17" stroke-width="1.5" stroke-linecap="round" stroke-linejoin="round"/>
<path d="M16.56 19.39C15.94 19.81 15.16 20.16 14.21 20.47L12.63 20.99C8.66001 22.27 6.57001 21.2 5.28001 17.23L4.00001 13.28C2.72001 9.31001 3.78001 7.21001 7.75001 5.93001L9.33001 5.41001C9.74001 5.28001 10.13 5.17001 10.5 5.10001C10.2 5.71001 9.96001 6.45001 9.76001 7.30001L8.78001 11.49C7.80001 15.67 9.09001 17.73 13.26 18.72L14.94 19.12C15.52 19.26 16.06 19.35 16.56 19.39Z" stroke="#0C0F17" stroke-width="1.5" stroke-linecap="round" stroke-linejoin="round"/>
<path d="M14.14 8.53L18.99 9.76" stroke="#0C0F17" stroke-width="1.5" stroke-linecap="round" stroke-linejoin="round"/>
<path d="M13.16 12.4L16.06 13.14" stroke="#0C0F17" stroke-width="1.5" stroke-linecap="round" stroke-linejoin="round"/>
<path d="M0.72 34V26.55H2.02L4.81 30.34H4.19L6.92 26.55H8.22V34H6.85V28.1L7.38 28.23L4.55 32H4.39L1.63 28.23L2.08 28.1V34H0.72ZM12.1158 34.12C11.5558 34.12 11.0658 33.9933 10.6458 33.74C10.2258 33.4867 9.89911 33.1433 9.66578 32.71C9.43245 32.2767 9.31578 31.7967 9.31578 31.27C9.31578 30.7233 9.43245 30.24 9.66578 29.82C9.90578 29.3933 10.2291 29.0567 10.6358 28.81C11.0491 28.5633 11.5091 28.44 12.0158 28.44C12.4424 28.44 12.8158 28.51 13.1358 28.65C13.4624 28.79 13.7391 28.9833 13.9658 29.23C14.1924 29.4767 14.3658 29.76 14.4858 30.08C14.6058 30.3933 14.6658 30.7333 14.6658 31.1C14.6658 31.1933 14.6591 31.29 14.6458 31.39C14.6391 31.49 14.6224 31.5767 14.5958 31.65H10.3958V30.65H13.8558L13.2358 31.12C13.2958 30.8133 13.2791 30.54 13.1858 30.3C13.0991 30.06 12.9524 29.87 12.7458 29.73C12.5458 29.59 12.3024 29.52 12.0158 29.52C11.7424 29.52 11.4991 29.59 11.2858 29.73C11.0724 29.8633 10.9091 30.0633 10.7958 30.33C10.6891 30.59 10.6491 30.9067 10.6758 31.28C10.6491 31.6133 10.6924 31.91 10.8058 32.17C10.9258 32.4233 11.0991 32.62 11.3258 32.76C11.5591 32.9 11.8258 32.97 12.1258 32.97C12.4258 32.97 12.6791 32.9067 12.8858 32.78C13.0991 32.6533 13.2658 32.4833 13.3858 32.27L14.4458 32.79C14.3391 33.05 14.1724 33.28 13.9458 33.48C13.7191 33.68 13.4491 33.8367 13.1358 33.95C12.8291 34.0633 12.4891 34.12 12.1158 34.12ZM15.6588 34V28.56H16.8888V29.63L16.7888 29.44C16.9155 29.1133 17.1222 28.8667 17.4088 28.7C17.7022 28.5267 18.0422 28.44 18.4288 28.44C18.8288 28.44 19.1822 28.5267 19.4888 28.7C19.8022 28.8733 20.0455 29.1167 20.2188 29.43C20.3922 29.7367 20.4788 30.0933 20.4788 30.5V34H19.1688V30.81C19.1688 30.57 19.1222 30.3633 19.0288 30.19C18.9355 30.0167 18.8055 29.8833 18.6388 29.79C18.4788 29.69 18.2888 29.64 18.0688 29.64C17.8555 29.64 17.6655 29.69 17.4988 29.79C17.3322 29.8833 17.2022 30.0167 17.1088 30.19C17.0155 30.3633 16.9688 30.57 16.9688 30.81V34H15.6588ZM23.5266 34.12C23.1066 34.12 22.7399 34.0267 22.4266 33.84C22.1199 33.6533 21.8832 33.3933 21.7166 33.06C21.5566 32.7267 21.4766 32.3367 21.4766 31.89V28.56H22.7866V31.78C22.7866 32.0067 22.8299 32.2067 22.9166 32.38C23.0099 32.5467 23.1399 32.68 23.3066 32.78C23.4799 32.8733 23.6732 32.92 23.8866 32.92C24.0999 32.92 24.2899 32.8733 24.4566 32.78C24.6232 32.68 24.7532 32.5433 24.8466 32.37C24.9399 32.1967 24.9866 31.99 24.9866 31.75V28.56H26.2966V34H25.0566V32.93L25.1666 33.12C25.0399 33.4533 24.8299 33.7033 24.5366 33.87C24.2499 34.0367 23.9132 34.12 23.5266 34.12Z" fill="#0C0F17"/>
</g>
</svg>
