<svg width="35" height="35" viewBox="0 0 35 35" fill="none" xmlns="http://www.w3.org/2000/svg">
<g opacity="0.5">
<path d="M24.47 22H10.47C7.47 22 7.47 20.65 7.47 19V18C7.47 17.45 7.92 17 8.47 17H26.47C27.02 17 27.47 17.45 27.47 18V19C27.47 20.65 27.47 22 24.47 22Z" stroke="#0C0F17" stroke-width="1.5" stroke-linecap="round" stroke-linejoin="round"/>
<path d="M26.22 13V17H8.77V13C8.77 9.16 11.48 5.95 15.09 5.18C15.63 5.06 16.19 5 16.77 5H18.22C18.8 5 19.37 5.06 19.91 5.18C23.52 5.96 26.22 9.16 26.22 13Z" stroke="#0C0F17" stroke-width="1.5" stroke-linecap="round" stroke-linejoin="round"/>
<path d="M20 4.5C20 4.74 19.97 4.96 19.91 5.18C19.37 5.06 18.8 5 18.22 5H16.77C16.19 5 15.63 5.06 15.09 5.18C15.03 4.96 15 4.74 15 4.5C15 3.12 16.12 2 17.5 2C18.88 2 20 3.12 20 4.5Z" stroke="#0C0F17" stroke-width="1.5" stroke-linecap="round" stroke-linejoin="round"/>
<path d="M20.5 11H14.5" stroke="#0C0F17" stroke-width="1.5" stroke-linecap="round" stroke-linejoin="round"/>
<path d="M4.39 34.12C3.84333 34.12 3.33333 34.0233 2.86 33.83C2.38667 33.6367 1.97333 33.3667 1.62 33.02C1.26667 32.6733 0.99 32.2667 0.79 31.8C0.596667 31.3267 0.5 30.8167 0.5 30.27C0.5 29.7167 0.596667 29.2067 0.79 28.74C0.983333 28.2733 1.25667 27.8667 1.61 27.52C1.96333 27.1733 2.37667 26.9067 2.85 26.72C3.32333 26.5267 3.83667 26.43 4.39 26.43C4.94333 26.43 5.45667 26.5267 5.93 26.72C6.40333 26.9133 6.81667 27.1833 7.17 27.53C7.52333 27.87 7.79667 28.2733 7.99 28.74C8.19 29.2067 8.29 29.7167 8.29 30.27C8.29 30.8167 8.19 31.3267 7.99 31.8C7.79 32.2667 7.51333 32.6733 7.16 33.02C6.80667 33.3667 6.39333 33.6367 5.92 33.83C5.45333 34.0233 4.94333 34.12 4.39 34.12ZM4.39 32.88C4.75667 32.88 5.09333 32.8167 5.4 32.69C5.70667 32.5567 5.97333 32.3733 6.2 32.14C6.43333 31.9067 6.61 31.63 6.73 31.31C6.85667 30.99 6.92 30.6433 6.92 30.27C6.92 29.8967 6.85667 29.5533 6.73 29.24C6.61 28.92 6.43333 28.6433 6.2 28.41C5.97333 28.17 5.70667 27.9867 5.4 27.86C5.09333 27.7333 4.75667 27.67 4.39 27.67C4.03 27.67 3.69667 27.7333 3.39 27.86C3.08333 27.9867 2.81333 28.17 2.58 28.41C2.35333 28.6433 2.17667 28.92 2.05 29.24C1.92333 29.5533 1.86 29.8967 1.86 30.27C1.86 30.6433 1.92333 30.99 2.05 31.31C2.17667 31.63 2.35333 31.9067 2.58 32.14C2.81333 32.3733 3.08333 32.5567 3.39 32.69C3.69667 32.8167 4.03 32.88 4.39 32.88ZM9.3893 34V28.56H10.6193V29.77L10.5193 29.59C10.646 29.1833 10.8426 28.9 11.1093 28.74C11.3826 28.58 11.7093 28.5 12.0893 28.5H12.4093V29.66H11.9393C11.566 29.66 11.266 29.7767 11.0393 30.01C10.8126 30.2367 10.6993 30.5567 10.6993 30.97V34H9.3893ZM15.6595 34.12C15.1329 34.12 14.6629 33.9967 14.2495 33.75C13.8362 33.4967 13.5095 33.1533 13.2695 32.72C13.0295 32.2867 12.9095 31.8067 12.9095 31.28C12.9095 30.7467 13.0295 30.2667 13.2695 29.84C13.5095 29.4133 13.8362 29.0733 14.2495 28.82C14.6695 28.5667 15.1362 28.44 15.6495 28.44C16.0629 28.44 16.4295 28.5233 16.7495 28.69C17.0762 28.85 17.3329 29.0767 17.5195 29.37L17.3195 29.64V26.43H18.6295V34H17.3895V32.95L17.5295 33.21C17.3429 33.5033 17.0829 33.73 16.7495 33.89C16.4162 34.0433 16.0529 34.12 15.6595 34.12ZM15.7995 32.92C16.0995 32.92 16.3629 32.85 16.5895 32.71C16.8162 32.57 16.9929 32.3767 17.1195 32.13C17.2529 31.8833 17.3195 31.6 17.3195 31.28C17.3195 30.9667 17.2529 30.6867 17.1195 30.44C16.9929 30.1867 16.8162 29.99 16.5895 29.85C16.3629 29.71 16.0995 29.64 15.7995 29.64C15.5062 29.64 15.2429 29.7133 15.0095 29.86C14.7762 30 14.5929 30.1933 14.4595 30.44C14.3329 30.68 14.2695 30.96 14.2695 31.28C14.2695 31.6 14.3329 31.8833 14.4595 32.13C14.5929 32.3767 14.7762 32.57 15.0095 32.71C15.2429 32.85 15.5062 32.92 15.7995 32.92ZM22.4283 34.12C21.8683 34.12 21.3783 33.9933 20.9583 33.74C20.5383 33.4867 20.2116 33.1433 19.9783 32.71C19.7449 32.2767 19.6283 31.7967 19.6283 31.27C19.6283 30.7233 19.7449 30.24 19.9783 29.82C20.2183 29.3933 20.5416 29.0567 20.9483 28.81C21.3616 28.5633 21.8216 28.44 22.3283 28.44C22.7549 28.44 23.1283 28.51 23.4483 28.65C23.7749 28.79 24.0516 28.9833 24.2783 29.23C24.5049 29.4767 24.6783 29.76 24.7983 30.08C24.9183 30.3933 24.9783 30.7333 24.9783 31.1C24.9783 31.1933 24.9716 31.29 24.9583 31.39C24.9516 31.49 24.9349 31.5767 24.9083 31.65H20.7083V30.65H24.1683L23.5483 31.12C23.6083 30.8133 23.5916 30.54 23.4983 30.3C23.4116 30.06 23.2649 29.87 23.0583 29.73C22.8583 29.59 22.6149 29.52 22.3283 29.52C22.0549 29.52 21.8116 29.59 21.5983 29.73C21.3849 29.8633 21.2216 30.0633 21.1083 30.33C21.0016 30.59 20.9616 30.9067 20.9883 31.28C20.9616 31.6133 21.0049 31.91 21.1183 32.17C21.2383 32.4233 21.4116 32.62 21.6383 32.76C21.8716 32.9 22.1383 32.97 22.4383 32.97C22.7383 32.97 22.9916 32.9067 23.1983 32.78C23.4116 32.6533 23.5783 32.4833 23.6983 32.27L24.7583 32.79C24.6516 33.05 24.4849 33.28 24.2583 33.48C24.0316 33.68 23.7616 33.8367 23.4483 33.95C23.1416 34.0633 22.8016 34.12 22.4283 34.12ZM25.9713 34V28.56H27.2013V29.77L27.1013 29.59C27.228 29.1833 27.4247 28.9 27.6913 28.74C27.9647 28.58 28.2913 28.5 28.6713 28.5H28.9913V29.66H28.5213C28.148 29.66 27.848 29.7767 27.6213 30.01C27.3947 30.2367 27.2813 30.5567 27.2813 30.97V34H25.9713ZM31.7816 34.12C31.2016 34.12 30.6949 33.9833 30.2616 33.71C29.8349 33.43 29.5416 33.0533 29.3816 32.58L30.3616 32.11C30.5016 32.4167 30.6949 32.6567 30.9416 32.83C31.1949 33.0033 31.4749 33.09 31.7816 33.09C32.0216 33.09 32.2116 33.0367 32.3516 32.93C32.4916 32.8233 32.5616 32.6833 32.5616 32.51C32.5616 32.4033 32.5316 32.3167 32.4716 32.25C32.4182 32.1767 32.3416 32.1167 32.2416 32.07C32.1482 32.0167 32.0449 31.9733 31.9316 31.94L31.0416 31.69C30.5816 31.5567 30.2316 31.3533 29.9916 31.08C29.7582 30.8067 29.6416 30.4833 29.6416 30.11C29.6416 29.7767 29.7249 29.4867 29.8916 29.24C30.0649 28.9867 30.3016 28.79 30.6016 28.65C30.9082 28.51 31.2582 28.44 31.6516 28.44C32.1649 28.44 32.6182 28.5633 33.0116 28.81C33.4049 29.0567 33.6849 29.4033 33.8516 29.85L32.8516 30.32C32.7582 30.0733 32.6016 29.8767 32.3816 29.73C32.1616 29.5833 31.9149 29.51 31.6416 29.51C31.4216 29.51 31.2482 29.56 31.1216 29.66C30.9949 29.76 30.9316 29.89 30.9316 30.05C30.9316 30.15 30.9582 30.2367 31.0116 30.31C31.0649 30.3833 31.1382 30.4433 31.2316 30.49C31.3316 30.5367 31.4449 30.58 31.5716 30.62L32.4416 30.88C32.8882 31.0133 33.2316 31.2133 33.4716 31.48C33.7182 31.7467 33.8416 32.0733 33.8416 32.46C33.8416 32.7867 33.7549 33.0767 33.5816 33.33C33.4082 33.5767 33.1682 33.77 32.8616 33.91C32.5549 34.05 32.1949 34.12 31.7816 34.12Z" fill="#0C0F17"/>
</g>
</svg>
