<svg width="32" height="35" viewBox="0 0 32 35" fill="none" xmlns="http://www.w3.org/2000/svg">
<g opacity="0.5">
<path d="M16.16 10.87C16.06 10.86 15.94 10.86 15.83 10.87C13.45 10.79 11.56 8.84 11.56 6.44C11.56 3.99 13.54 2 16 2C18.45 2 20.44 3.99 20.44 6.44C20.43 8.84 18.54 10.79 16.16 10.87Z" stroke="#0C0F17" stroke-width="1.5" stroke-linecap="round" stroke-linejoin="round"/>
<path d="M11.16 14.56C8.74 16.18 8.74 18.82 11.16 20.43C13.91 22.27 18.42 22.27 21.17 20.43C23.59 18.81 23.59 16.17 21.17 14.56C18.43 12.73 13.92 12.73 11.16 14.56Z" stroke="#0C0F17" stroke-width="1.5" stroke-linecap="round" stroke-linejoin="round"/>
<path d="M0.72 34V26.55H3.5C4.00667 26.55 4.45333 26.6433 4.84 26.83C5.23333 27.01 5.54 27.2767 5.76 27.63C5.98 27.9767 6.09 28.4 6.09 28.9C6.09 29.3933 5.97667 29.8167 5.75 30.17C5.53 30.5167 5.22667 30.7833 4.84 30.97C4.45333 31.1567 4.00667 31.25 3.5 31.25H2.08V34H0.72ZM2.08 30.05H3.52C3.76667 30.05 3.98 30.0033 4.16 29.91C4.34 29.81 4.48 29.6733 4.58 29.5C4.68 29.3267 4.73 29.1267 4.73 28.9C4.73 28.6667 4.68 28.4667 4.58 28.3C4.48 28.1267 4.34 27.9933 4.16 27.9C3.98 27.8 3.76667 27.75 3.52 27.75H2.08V30.05ZM7.09438 34V28.56H8.32438V29.77L8.22438 29.59C8.35104 29.1833 8.54771 28.9 8.81438 28.74C9.08771 28.58 9.41438 28.5 9.79438 28.5H10.1144V29.66H9.64438C9.27104 29.66 8.97104 29.7767 8.74438 30.01C8.51771 30.2367 8.40438 30.5567 8.40438 30.97V34H7.09438ZM13.4946 34.12C12.9613 34.12 12.4746 33.9967 12.0346 33.75C11.6013 33.5033 11.2546 33.1667 10.9946 32.74C10.7413 32.3133 10.6146 31.8267 10.6146 31.28C10.6146 30.7333 10.7413 30.2467 10.9946 29.82C11.2546 29.3933 11.6013 29.0567 12.0346 28.81C12.4679 28.5633 12.9546 28.44 13.4946 28.44C14.0279 28.44 14.5113 28.5633 14.9446 28.81C15.3779 29.0567 15.7213 29.3933 15.9746 29.82C16.2346 30.24 16.3646 30.7267 16.3646 31.28C16.3646 31.8267 16.2346 32.3133 15.9746 32.74C15.7146 33.1667 15.3679 33.5033 14.9346 33.75C14.5013 33.9967 14.0213 34.12 13.4946 34.12ZM13.4946 32.92C13.7879 32.92 14.0446 32.85 14.2646 32.71C14.4913 32.57 14.6679 32.3767 14.7946 32.13C14.9279 31.8767 14.9946 31.5933 14.9946 31.28C14.9946 30.96 14.9279 30.68 14.7946 30.44C14.6679 30.1933 14.4913 30 14.2646 29.86C14.0446 29.7133 13.7879 29.64 13.4946 29.64C13.1946 29.64 12.9313 29.7133 12.7046 29.86C12.4779 30 12.2979 30.1933 12.1646 30.44C12.0379 30.68 11.9746 30.96 11.9746 31.28C11.9746 31.5933 12.0379 31.8767 12.1646 32.13C12.2979 32.3767 12.4779 32.57 12.7046 32.71C12.9313 32.85 13.1946 32.92 13.4946 32.92ZM17.8709 34V29.73H16.9109V28.56H17.8709V28.38C17.8709 27.9667 17.9542 27.6167 18.1209 27.33C18.2942 27.0367 18.5342 26.8133 18.8409 26.66C19.1475 26.5067 19.5109 26.43 19.9309 26.43C20.0109 26.43 20.0975 26.4367 20.1909 26.45C20.2909 26.4567 20.3742 26.4667 20.4409 26.48V27.61C20.3742 27.5967 20.3109 27.59 20.2509 27.59C20.1975 27.5833 20.1475 27.58 20.1009 27.58C19.8075 27.58 19.5809 27.6467 19.4209 27.78C19.2609 27.9067 19.1809 28.1067 19.1809 28.38V28.56H21.5609V29.73H19.1809V34H17.8709ZM21.0709 34V28.56H22.3909V34H21.0709ZM23.4811 34V26.43H24.7911V34H23.4811ZM28.5806 34.12C28.0206 34.12 27.5306 33.9933 27.1106 33.74C26.6906 33.4867 26.364 33.1433 26.1306 32.71C25.8973 32.2767 25.7806 31.7967 25.7806 31.27C25.7806 30.7233 25.8973 30.24 26.1306 29.82C26.3706 29.3933 26.694 29.0567 27.1006 28.81C27.514 28.5633 27.974 28.44 28.4806 28.44C28.9073 28.44 29.2806 28.51 29.6006 28.65C29.9273 28.79 30.204 28.9833 30.4306 29.23C30.6573 29.4767 30.8306 29.76 30.9506 30.08C31.0706 30.3933 31.1306 30.7333 31.1306 31.1C31.1306 31.1933 31.124 31.29 31.1106 31.39C31.104 31.49 31.0873 31.5767 31.0606 31.65H26.8606V30.65H30.3206L29.7006 31.12C29.7606 30.8133 29.744 30.54 29.6506 30.3C29.564 30.06 29.4173 29.87 29.2106 29.73C29.0106 29.59 28.7673 29.52 28.4806 29.52C28.2073 29.52 27.964 29.59 27.7506 29.73C27.5373 29.8633 27.374 30.0633 27.2606 30.33C27.154 30.59 27.114 30.9067 27.1406 31.28C27.114 31.6133 27.1573 31.91 27.2706 32.17C27.3906 32.4233 27.564 32.62 27.7906 32.76C28.024 32.9 28.2906 32.97 28.5906 32.97C28.8906 32.97 29.144 32.9067 29.3506 32.78C29.564 32.6533 29.7306 32.4833 29.8506 32.27L30.9106 32.79C30.804 33.05 30.6373 33.28 30.4106 33.48C30.184 33.68 29.914 33.8367 29.6006 33.95C29.294 34.0633 28.954 34.12 28.5806 34.12Z" fill="#0C0F17"/>
</g>
</svg>
